<?xml version="1.0" encoding="UTF-8"?>
<svg version="1.1" xmlns="http://www.w3.org/2000/svg" width="512" height="512">
<path d="M0 0 C168.96 0 337.92 0 512 0 C512 168.96 512 337.92 512 512 C343.04 512 174.08 512 0 512 C0 343.04 0 174.08 0 0 Z " fill="#FEFEFE" transform="translate(0,0)"/>
<path d="M0 0 C11.23196713 -0.04656011 22.4639109 -0.08198864 33.69595528 -0.10362434 C38.9127356 -0.11401398 44.12944937 -0.12808403 49.34619141 -0.15087891 C54.39070149 -0.17278058 59.43514799 -0.18460477 64.479702 -0.18975449 C66.39399083 -0.1934194 68.3082766 -0.20057499 70.22253799 -0.21146011 C96.04174888 -0.35229456 118.13576367 4.27896048 137.51025391 22.51904297 C145.34237846 30.30496029 150.20766813 39.67876992 154.83886719 49.54248047 C156.18633796 52.3943814 157.5649939 55.23026218 158.9453125 58.06640625 C159.96418969 60.16895693 160.98242186 62.27182031 162 64.375 C162.4935498 65.39247314 162.98709961 66.40994629 163.49560547 67.45825195 C163.95080566 68.40788818 164.40600586 69.35752441 164.875 70.3359375 C165.28492188 71.18720215 165.69484375 72.0384668 166.1171875 72.91552734 C167 75 167 75 167 77 C167.66 77 168.32 77 169 77 C169.33 75.35 169.66 73.7 170 72 C172.64 66.39 175.28 60.78 178 55 C191.86 55 205.72 55 220 55 C214.26933891 68.75358662 214.26933891 68.75358662 211.25 74.84375 C210.74786232 75.86887192 210.74786232 75.86887192 210.23558044 76.91470337 C209.52575811 78.36374695 208.81455385 79.81211435 208.10202026 81.25982666 C202.41432795 92.82169816 196.82137746 104.41820662 191.4375 116.125 C186.83927197 126.09921097 182.16415591 136.03339611 177.3989563 145.92889404 C176.67843807 147.4267608 175.96005035 148.92565439 175.24386597 150.42559814 C174.24809494 152.50938717 173.24437939 154.58915033 172.23828125 156.66796875 C171.93993378 157.29566666 171.6415863 157.92336456 171.334198 158.57008362 C169.228838 162.885581 169.228838 162.885581 167 164 C154.17970145 137.45998652 154.17970145 137.45998652 149.6875 127.9375 C149.15511719 126.81214844 148.62273437 125.68679688 148.07421875 124.52734375 C147 122 147 122 147 120 C144.56190513 122.41667049 142.14836206 124.83969466 139.81640625 127.359375 C125.99763256 142.01637586 107.62035911 151.59769788 87.30596924 152.25985718 C80.36269619 152.38516687 73.42042207 152.33832432 66.4765625 152.29296875 C64.20727764 152.28854945 61.93798971 152.28549413 59.66870117 152.28381348 C51.32075368 152.26818273 42.97287196 152.2262991 34.625 152.1875 C15.93875 152.125625 -2.7475 152.06375 -22 152 C-22 106.79 -22 61.58 -22 15 C-19.69 16.98 -17.38 18.96 -15 21 C-13.21723373 22.21549458 -11.43416142 23.43082341 -9.63340759 24.61950684 C1.25210396 32.02669203 12.79049248 41.29810232 15.83612061 54.67138672 C18.89604199 74.33602226 16.7847865 95.3036736 15 115 C24.71943543 114.96180533 34.43844524 114.90224512 44.15757465 114.81609726 C48.67155126 114.77674313 53.18533632 114.74449592 57.69946289 114.72900391 C62.06340219 114.71375727 66.42681443 114.67917173 70.79051781 114.63169098 C72.4476581 114.61695918 74.10487368 114.60896374 75.76207924 114.60811615 C90.00301735 114.5935196 101.13707346 112.55447202 111.68359375 102.375 C119.66425824 93.77737641 121.3944462 83.80680699 121.27734375 72.3828125 C120.47880844 62.6429311 115.97805135 54.74470519 109 48.09375 C101.12311819 41.4546639 91.33313676 37.79597784 81.0012207 37.9375 C80.03283768 37.946604 79.06445465 37.95570801 78.06672668 37.96508789 C77.03021469 37.97660889 75.9937027 37.98812988 74.92578125 38 C72.7089843 38.00115865 70.49218482 37.99977582 68.27539062 37.99609375 C64.79659553 37.99168246 61.32049155 37.99988194 57.84204102 38.05126953 C35.99323688 38.34641868 35.99323688 38.34641868 29.41796875 32.5625 C26 28.63960852 26 28.63960852 26 26 C25.44731445 25.77183594 24.89462891 25.54367188 24.32519531 25.30859375 C21.32753597 23.62154482 19.2323494 21.49187482 16.796875 19.0625 C16.3142218 18.58176025 15.8315686 18.10102051 15.33428955 17.60571289 C14.32000936 16.59278907 13.30823196 15.57735362 12.29882812 14.55957031 C10.74828028 12.99826835 9.18729497 11.44797503 7.625 9.8984375 C6.63998266 8.91209939 5.65558547 7.9251415 4.671875 6.9375 C3.7756543 6.03902344 2.87943359 5.14054688 1.95605469 4.21484375 C0 2 0 2 0 0 Z " fill="#040404" transform="translate(167,157)"/>
<path d="M0 0 C1.72974441 0.00015918 3.45949355 0.0058569 5.18920898 0.01586914 C6.09783188 0.01728409 7.00645477 0.01869904 7.94261169 0.02015686 C10.85687494 0.02577346 13.77106254 0.03832874 16.68530273 0.05102539 C18.65600475 0.05603825 20.62670797 0.06060153 22.59741211 0.06469727 C27.43923832 0.07574828 32.28100768 0.09302401 37.12280273 0.11352539 C35.84210122 4.17288846 34.34057672 7.95554037 32.47827148 11.78149414 C31.96586914 12.84045898 31.4534668 13.89942383 30.92553711 14.99047852 C30.39250977 16.08295898 29.85948242 17.17543945 29.31030273 18.30102539 C28.2609829 20.46062677 27.21279664 22.62077932 26.16577148 24.78149414 C25.70195068 25.73306396 25.23812988 26.68463379 24.76025391 27.66503906 C22.48688932 32.45276453 20.31597792 37.28853997 18.12280273 42.11352539 C4.26280273 42.11352539 -9.59719727 42.11352539 -23.87719727 42.11352539 C-14.57906062 21.19271794 -14.57906062 21.19271794 -9.93969727 11.55102539 C-9.21943359 10.03992188 -9.21943359 10.03992188 -8.48461914 8.49829102 C-4.47351746 0.13098581 -4.47351746 0.13098581 0 0 Z " fill="#E3242B" transform="translate(375.877197265625,156.886474609375)"/>
<path d="M0 0 C2.33294775 -0.04241723 4.66702567 -0.04092937 7 0 C8 1 8 1 8.0625 3.5625 C8.041875 4.366875 8.02125 5.17125 8 6 C7.34 6 6.68 6 6 6 C6.99 7.98 7.98 9.96 9 12 C8.34 12 7.68 12 7 12 C6.34 10.35 5.68 8.7 5 7 C4.01 7 3.02 7 2 7 C2 8.65 2 10.3 2 12 C1.34 12 0.68 12 0 12 C0 8.04 0 4.08 0 0 Z " fill="#1C1B1B" transform="translate(173,353)"/>
<path d="M0 0 C1.670625 0.061875 1.670625 0.061875 3.375 0.125 C3.705 0.785 4.035 1.445 4.375 2.125 C3.240625 2.104375 2.10625 2.08375 0.9375 2.0625 C-2.44075674 1.70922523 -2.44075674 1.70922523 -3.625 3.125 C-3.79166667 5.625 -3.79166667 5.625 -3.625 8.125 C-2.44075674 9.54077477 -2.44075674 9.54077477 0.9375 9.1875 C2.6390625 9.1565625 2.6390625 9.1565625 4.375 9.125 C3.385 10.61 3.385 10.61 2.375 12.125 C-1 11.8125 -1 11.8125 -4.625 11.125 C-6.625 8.125 -6.625 8.125 -6.375 5.0625 C-5.25898775 0.69145203 -4.55212721 0.1569699 0 0 Z " fill="#1C1B1B" transform="translate(144.625,352.875)"/>
<path d="M0 0 C2.475 0.495 2.475 0.495 5 1 C4.67 2.32 4.34 3.64 4 5 C2.68 5 1.36 5 0 5 C0 3.35 0 1.7 0 0 Z " fill="#E6E1E1" transform="translate(175,354)"/>
</svg>
